<?xml version="1.0" encoding="UTF-8" ?>
<!DOCTYPE svg PUBLIC "-//W3C//DTD SVG 1.1//EN" "http://www.w3.org/Graphics/SVG/1.1/DTD/svg11.dtd">
<svg width="350pt" height="350pt" viewBox="0 0 350 350" version="1.1" xmlns="http://www.w3.org/2000/svg">
<path fill="#ffffff" d=" M 0.00 0.00 L 350.00 0.00 L 350.00 350.00 L 0.00 350.00 L 0.00 0.00 Z" />
<path fill="#47e4f8" d=" M 167.19 13.35 C 183.55 7.63 203.05 8.92 218.72 16.39 C 221.61 17.02 224.70 17.49 227.44 16.14 C 232.27 22.96 241.05 25.03 248.01 28.97 C 251.47 31.14 255.33 28.66 258.85 27.93 C 258.47 30.80 259.57 33.12 262.69 33.34 C 266.15 35.87 269.48 38.56 272.86 41.19 C 273.80 41.94 274.76 42.65 275.75 43.33 C 276.38 43.81 277.02 44.29 277.66 44.77 C 280.12 47.91 282.25 51.29 284.02 54.87 C 284.38 59.46 285.93 63.84 286.80 68.34 C 284.62 66.98 283.50 64.56 281.87 62.66 C 278.61 66.19 280.53 71.28 281.77 75.29 C 275.40 68.51 264.72 70.51 256.67 67.20 C 261.08 61.78 256.58 58.87 251.39 56.68 C 247.70 52.64 242.41 50.47 237.38 48.59 C 236.01 48.28 232.63 46.98 234.48 49.51 C 238.25 52.31 242.25 54.81 245.87 57.83 C 246.22 58.93 246.55 60.04 246.87 61.15 C 240.46 58.90 234.39 54.68 227.38 55.21 C 223.91 58.77 219.64 61.85 216.97 66.07 C 218.48 71.92 225.38 75.64 225.96 81.80 C 218.90 84.28 211.31 79.86 204.01 80.91 C 196.11 79.70 189.09 84.11 181.58 85.50 C 175.69 86.20 170.10 83.51 164.29 83.39 C 156.14 87.61 148.39 93.09 138.97 94.09 C 132.24 96.29 125.79 91.69 119.10 91.22 C 115.22 92.40 111.55 94.18 107.97 96.06 C 107.91 89.76 107.91 83.46 108.20 77.16 C 118.17 72.99 124.98 63.72 134.36 58.37 C 138.12 57.37 144.98 49.40 134.99 52.00 C 122.88 50.65 114.42 60.18 105.95 67.18 C 103.95 58.47 110.14 51.69 114.38 44.91 C 115.72 43.70 117.01 42.45 118.26 41.17 C 129.97 25.03 149.81 20.65 167.19 13.35 Z" />
<path fill="#29a3ce" d=" M 227.12 15.34 C 227.18 11.27 231.98 13.56 233.82 15.13 C 241.67 18.79 249.50 22.75 257.80 25.33 C 258.89 25.85 259.24 26.72 258.85 27.93 C 255.33 28.66 251.47 31.14 248.01 28.97 C 241.05 25.03 232.27 22.96 227.44 16.14 L 227.12 15.34 Z" />
<path fill="#ade9f1" d=" M 218.72 16.39 C 221.50 16.03 224.32 15.69 227.12 15.34 L 227.44 16.14 C 224.70 17.49 221.61 17.02 218.72 16.39 Z" />
<path fill="#77d4e5" d=" M 233.82 15.13 C 242.46 15.23 252.21 18.73 257.80 25.33 C 249.50 22.75 241.67 18.79 233.82 15.13 Z" />
<path fill="#1ba8d9" d=" M 174.40 21.43 C 181.65 22.18 194.87 18.70 199.10 25.92 C 187.22 25.52 175.46 26.95 163.86 28.97 C 164.30 23.75 170.05 22.33 174.40 21.43 Z" />
<path fill="#9cd2d8" d=" M 262.69 33.34 C 267.16 33.32 272.00 37.45 273.86 41.11 L 272.86 41.19 C 269.48 38.56 266.15 35.87 262.69 33.34 Z" />
<path fill="#101010" d=" M 39.01 42.01 C 62.57 39.84 90.25 41.27 115.38 41.31 C 91.38 45.42 65.65 41.70 41.01 43.04 L 40.05 43.12 C 39.49 123.51 40.89 203.99 39.36 284.33 C 38.53 203.57 39.23 122.78 39.01 42.01 Z" />
<path fill="#aeb1b1" d=" M 115.38 41.31 C 116.10 41.28 117.54 41.20 118.26 41.17 C 117.01 42.45 115.72 43.70 114.38 44.91 C 90.02 42.86 65.47 44.53 41.03 44.01 L 41.01 43.04 C 65.65 41.70 91.38 45.42 115.38 41.31 Z" />
<path fill="#688a8e" d=" M 272.86 41.19 L 273.86 41.11 C 274.60 41.09 276.09 41.06 276.84 41.04 C 277.14 41.55 277.75 42.57 278.05 43.08 C 277.48 43.14 276.33 43.27 275.75 43.33 C 274.76 42.65 273.80 41.94 272.86 41.19 Z" />
<path fill="#101010" d=" M 276.84 41.04 C 291.19 40.99 305.55 40.91 319.90 41.05 C 319.86 41.47 319.78 42.32 319.74 42.74 C 317.61 108.51 320.29 174.49 318.41 240.27 C 317.40 174.55 318.38 108.79 317.93 43.06 C 304.63 42.93 291.34 42.91 278.05 43.08 C 277.75 42.57 277.14 41.55 276.84 41.04 Z" />
<path fill="#bbbbbb" d=" M 38.06 42.03 L 39.01 42.01 C 39.23 122.78 38.53 203.57 39.36 284.33 C 39.30 284.76 39.18 285.61 39.12 286.04 C 38.84 286.28 38.26 286.75 37.98 286.98 C 38.08 205.33 37.90 123.68 38.06 42.03 Z" />
<path fill="#23aadc" d=" M 180.33 42.23 C 189.87 42.13 199.77 40.64 208.95 44.05 C 208.62 45.17 210.09 48.29 208.17 47.97 C 208.76 41.25 198.40 47.04 195.14 46.21 C 190.94 48.32 182.56 48.78 184.00 54.96 C 186.55 55.00 189.10 54.94 191.65 54.78 C 189.36 56.85 182.47 58.38 178.11 59.16 C 184.53 52.94 159.90 50.47 166.02 59.86 C 157.76 60.71 150.37 55.52 142.33 54.64 C 140.41 54.24 140.73 51.86 142.24 51.13 C 152.07 50.70 161.91 51.33 171.74 50.81 C 174.70 48.04 177.31 44.92 180.33 42.23 Z" />
<path fill="#333333" d=" M 40.05 43.12 L 41.01 43.04 L 41.03 44.01 C 41.08 124.07 40.79 204.13 41.17 284.19 C 40.50 284.82 39.82 285.44 39.12 286.04 C 39.18 285.61 39.30 284.76 39.36 284.33 C 40.89 203.99 39.49 123.51 40.05 43.12 Z" />
<path fill="#b9baba" d=" M 275.75 43.33 C 276.33 43.27 277.48 43.14 278.05 43.08 C 291.34 42.91 304.63 42.93 317.93 43.06 C 318.38 108.79 317.40 174.55 318.41 240.27 C 318.46 241.23 318.56 242.19 318.72 243.15 C 317.89 242.85 317.10 242.49 316.34 242.09 C 317.80 176.13 316.72 110.06 316.89 44.07 C 303.87 44.63 290.52 42.59 277.66 44.77 C 277.02 44.29 276.38 43.81 275.75 43.33 Z" />
<path fill="#333333" d=" M 318.41 240.27 C 320.29 174.49 317.61 108.51 319.74 42.74 C 320.05 109.64 320.41 176.64 319.58 243.50 L 318.72 243.15 C 318.56 242.19 318.46 241.23 318.41 240.27 Z" />
<path fill="#feffff" d=" M 41.03 44.01 C 65.47 44.53 90.02 42.86 114.38 44.91 C 110.14 51.69 103.95 58.47 105.95 67.18 C 105.85 69.15 106.36 71.06 107.08 72.88 C 108.69 83.31 103.71 95.37 109.02 105.00 C 109.91 106.55 110.85 108.06 111.86 109.54 C 112.02 109.95 112.33 110.77 112.48 111.18 C 115.23 117.08 117.71 122.91 117.36 129.71 C 117.68 134.72 115.63 140.25 117.96 144.99 C 118.01 150.47 118.64 155.92 119.17 161.36 C 119.13 165.40 120.21 169.26 121.15 173.14 C 121.57 175.21 122.07 177.27 122.59 179.33 C 124.33 188.54 132.57 194.69 136.36 203.04 C 131.97 206.44 133.05 210.29 138.07 212.12 C 138.01 213.58 136.85 214.58 136.01 215.65 C 129.29 219.61 121.59 222.35 115.86 227.78 C 112.70 229.96 109.30 231.96 106.85 234.99 C 94.56 242.28 82.85 250.62 71.90 259.81 C 68.70 261.95 65.33 263.98 62.82 266.96 C 59.73 269.06 56.67 271.23 53.89 273.73 C 49.47 277.00 45.35 280.62 41.17 284.19 C 40.79 204.13 41.08 124.07 41.03 44.01 Z" />
<path fill="#fefefe" d=" M 277.66 44.77 C 290.52 42.59 303.87 44.63 316.89 44.07 C 316.72 110.06 317.80 176.13 316.34 242.09 C 308.77 237.79 300.89 234.17 292.69 231.26 C 288.21 229.86 295.41 227.92 295.26 225.10 C 295.82 222.36 296.70 219.39 295.20 216.82 C 294.02 214.12 292.33 211.70 290.87 209.16 C 290.93 201.67 291.35 194.15 290.37 186.71 C 290.41 178.93 286.52 170.22 290.91 163.06 C 292.95 160.68 295.32 158.09 294.95 154.69 C 295.08 152.87 295.14 151.05 295.02 149.24 C 291.20 133.96 290.91 118.00 286.35 102.85 C 284.28 98.98 286.12 95.06 287.19 91.24 C 289.02 86.01 288.96 80.44 289.05 74.99 C 288.47 70.37 290.31 65.16 288.18 60.83 C 287.00 58.70 285.46 56.81 284.02 54.87 C 282.25 51.29 280.12 47.91 277.66 44.77 Z" />
<path fill="#0c7198" d=" M 195.14 46.21 C 198.40 47.04 208.76 41.25 208.17 47.97 C 206.57 54.71 196.62 51.53 191.65 54.78 C 189.10 54.94 186.55 55.00 184.00 54.96 C 182.56 48.78 190.94 48.32 195.14 46.21 Z" />
<path fill="#24aee0" d=" M 234.48 49.51 C 232.63 46.98 236.01 48.28 237.38 48.59 C 242.41 50.47 247.70 52.64 251.39 56.68 C 249.60 57.07 245.96 54.95 245.87 57.83 C 242.25 54.81 238.25 52.31 234.48 49.51 Z" />
<path fill="#2997c4" d=" M 105.95 67.18 C 114.42 60.18 122.88 50.65 134.99 52.00 C 144.98 49.40 138.12 57.37 134.36 58.37 C 124.98 63.72 118.17 72.99 108.20 77.16 C 107.92 75.71 107.60 74.26 107.08 72.88 C 106.36 71.06 105.85 69.15 105.95 67.18 Z" />
<path fill="#0e769e" d=" M 166.02 59.86 C 159.90 50.47 184.53 52.94 178.11 59.16 C 174.70 61.62 169.91 61.06 166.02 59.86 Z" />
<path fill="#3a91b7" d=" M 227.38 55.21 C 234.39 54.68 240.46 58.90 246.87 61.15 C 246.55 60.04 246.22 58.93 245.87 57.83 C 249.32 61.11 251.65 65.95 256.67 67.20 C 264.72 70.51 275.40 68.51 281.77 75.29 C 280.53 71.28 278.61 66.19 281.87 62.66 C 283.50 64.56 284.62 66.98 286.80 68.34 C 285.93 63.84 284.38 59.46 284.02 54.87 C 285.46 56.81 287.00 58.70 288.18 60.83 C 288.12 65.56 288.05 70.30 288.02 75.03 C 287.78 80.44 287.06 85.82 287.19 91.24 C 286.12 95.06 284.28 98.98 286.35 102.85 C 280.88 111.59 278.64 123.26 269.29 129.33 C 266.04 131.21 266.96 138.24 262.13 136.93 C 256.79 134.51 251.84 129.98 245.55 133.04 C 245.30 146.30 226.05 140.42 223.77 151.84 C 221.00 161.76 208.03 161.28 202.63 169.48 C 198.86 168.79 197.23 174.50 201.87 172.84 C 207.91 169.56 214.73 168.84 221.34 167.33 C 232.53 163.80 241.30 155.38 252.18 151.29 C 266.40 149.31 280.87 146.12 295.02 149.24 C 295.14 151.05 295.08 152.87 294.95 154.69 C 292.13 156.39 292.02 160.24 290.91 163.06 C 286.52 170.22 290.41 178.93 290.37 186.71 C 290.62 194.08 288.63 202.07 290.87 209.16 C 292.33 211.70 294.02 214.12 295.20 216.82 C 295.23 219.58 295.25 222.33 295.26 225.10 C 290.78 226.96 286.67 229.57 282.37 231.79 C 273.56 227.54 264.25 222.35 253.97 222.98 C 252.42 230.05 263.91 230.68 262.98 237.79 C 255.78 239.57 248.32 239.72 241.06 241.17 C 241.05 241.84 241.04 243.18 241.04 243.85 C 251.04 245.15 262.65 246.03 270.82 238.87 C 274.68 236.50 277.61 232.20 282.37 231.79 C 280.17 236.29 276.72 240.23 274.94 244.92 C 281.48 253.27 289.99 263.30 300.95 265.05 C 300.39 265.82 299.80 266.57 299.18 267.29 C 291.23 266.94 283.13 265.01 275.27 267.14 C 275.22 267.91 275.10 269.44 275.05 270.21 C 271.53 274.22 267.57 277.81 263.36 281.07 C 263.46 278.58 261.43 279.36 259.85 279.77 C 240.52 287.26 222.83 272.26 215.53 255.37 C 198.67 255.32 182.69 247.87 170.13 236.92 C 167.39 234.90 164.93 231.64 160.86 233.02 C 161.49 240.71 169.54 245.45 169.64 253.37 C 170.12 261.98 177.83 274.06 167.68 279.66 C 161.63 281.46 155.06 282.53 148.80 281.21 C 152.07 289.09 161.08 293.92 161.97 302.81 C 156.47 303.41 150.62 303.10 145.46 305.37 C 145.19 307.76 144.66 310.31 143.33 312.39 C 132.55 312.93 121.69 313.59 111.00 315.01 C 105.20 315.43 101.35 320.53 103.22 326.39 C 101.72 328.73 99.81 331.13 97.11 332.13 C 97.15 313.40 97.06 294.67 95.96 275.99 C 95.62 271.16 107.89 267.50 103.97 276.00 C 102.47 289.54 107.88 303.05 118.29 311.79 C 126.22 311.42 134.07 310.16 142.00 309.83 C 142.14 307.98 142.11 305.84 140.20 304.77 C 131.37 295.27 125.08 283.80 117.95 273.03 C 113.13 267.77 115.53 260.15 115.05 253.79 C 121.59 258.27 123.83 267.90 128.53 274.42 C 129.66 277.58 134.50 275.35 134.54 272.60 C 134.62 256.17 144.04 240.95 140.61 224.34 C 139.46 221.36 139.31 217.07 136.01 215.65 C 136.85 214.58 138.01 213.58 138.07 212.12 C 138.09 209.02 137.22 205.98 136.36 203.04 C 132.57 194.69 124.33 188.54 122.59 179.33 C 125.38 175.64 128.64 171.80 129.16 167.04 C 123.87 164.63 122.94 170.11 121.15 173.14 C 120.21 169.26 119.13 165.40 119.17 161.36 C 123.33 156.60 124.97 149.66 133.03 151.80 C 133.16 144.96 124.51 143.00 121.75 149.73 C 118.05 154.78 119.58 148.13 117.96 144.99 C 117.76 139.91 118.58 134.71 117.36 129.71 C 117.71 122.91 115.23 117.08 112.48 111.18 C 114.17 109.95 115.76 108.39 117.85 107.87 C 121.47 111.67 114.65 122.65 123.83 120.37 C 136.80 122.85 148.29 113.63 161.00 112.68 C 161.34 107.34 154.20 107.30 150.66 105.33 C 144.23 102.08 136.89 103.53 130.01 103.93 C 125.46 103.32 121.90 99.15 117.25 99.07 C 113.69 101.68 115.75 107.75 111.86 109.54 C 110.85 108.06 109.91 106.55 109.02 105.00 C 108.62 102.03 108.01 99.07 107.97 96.06 C 111.55 94.18 115.22 92.40 119.10 91.22 C 125.79 91.69 132.24 96.29 138.97 94.09 C 148.39 93.09 156.14 87.61 164.29 83.39 C 170.10 83.51 175.69 86.20 181.58 85.50 C 189.09 84.11 196.11 79.70 204.01 80.91 C 211.31 79.86 218.90 84.28 225.96 81.80 C 225.38 75.64 218.48 71.92 216.97 66.07 C 219.64 61.85 223.91 58.77 227.38 55.21 Z" />
<path fill="#147094" d=" M 245.87 57.83 C 245.96 54.95 249.60 57.07 251.39 56.68 C 256.58 58.87 261.08 61.78 256.67 67.20 C 251.65 65.95 249.32 61.11 245.87 57.83 Z" />
<path fill="#80a0b2" d=" M 288.18 60.83 C 290.31 65.16 288.47 70.37 289.05 74.99 L 288.02 75.03 C 288.05 70.30 288.12 65.56 288.18 60.83 Z" />
<path fill="#2db9ef" d=" M 242.85 69.01 C 250.66 74.28 262.46 74.12 265.09 85.00 C 259.45 85.66 255.44 80.54 250.98 78.03 C 247.76 75.49 243.40 73.51 242.85 69.01 Z" />
<path fill="#73cbd9" d=" M 107.08 72.88 C 107.60 74.26 107.92 75.71 108.20 77.16 C 107.91 83.46 107.91 89.76 107.97 96.06 C 108.01 99.07 108.62 102.03 109.02 105.00 C 103.71 95.37 108.69 83.31 107.08 72.88 Z" />
<path fill="#2cb3ea" d=" M 127.37 75.41 C 130.05 73.92 136.53 74.51 133.31 78.26 C 125.31 78.13 118.98 84.53 110.96 85.05 C 110.00 75.95 121.42 77.69 127.37 75.41 Z" />
<path fill="#c6d1d6" d=" M 288.02 75.03 L 289.05 74.99 C 288.96 80.44 289.02 86.01 287.19 91.24 C 287.06 85.82 287.78 80.44 288.02 75.03 Z" />
<path fill="#226686" d=" M 166.97 87.00 C 185.40 86.96 200.77 99.82 219.02 100.95 C 234.91 101.94 251.13 106.31 266.65 100.54 C 270.29 99.24 274.19 98.83 278.05 99.02 C 278.54 101.48 275.72 102.20 273.98 102.97 C 244.69 109.91 213.72 117.61 183.87 109.24 C 181.10 109.46 181.44 105.17 183.25 104.13 C 187.86 103.90 192.50 104.16 197.12 103.90 C 188.49 97.34 177.13 94.32 167.17 89.73 C 167.12 89.05 167.02 87.68 166.97 87.00 Z" />
<path fill="#33cdfa" d=" M 117.25 99.07 C 121.90 99.15 125.46 103.32 130.01 103.93 C 136.89 103.53 144.23 102.08 150.66 105.33 C 154.20 107.30 161.34 107.34 161.00 112.68 C 148.29 113.63 136.80 122.85 123.83 120.37 C 114.65 122.65 121.47 111.67 117.85 107.87 C 115.76 108.39 114.17 109.95 112.48 111.18 C 112.33 110.77 112.02 109.95 111.86 109.54 C 115.75 107.75 113.69 101.68 117.25 99.07 Z" />
<path fill="#45b6e9" d=" M 286.35 102.85 C 290.91 118.00 291.20 133.96 295.02 149.24 C 280.87 146.12 266.40 149.31 252.18 151.29 C 241.30 155.38 232.53 163.80 221.34 167.33 C 214.73 168.84 207.91 169.56 201.87 172.84 C 197.23 174.50 198.86 168.79 202.63 169.48 C 208.03 161.28 221.00 161.76 223.77 151.84 C 226.05 140.42 245.30 146.30 245.55 133.04 C 251.84 129.98 256.79 134.51 262.13 136.93 C 266.96 138.24 266.04 131.21 269.29 129.33 C 278.64 123.26 280.88 111.59 286.35 102.85 Z" />
<path fill="#236483" d=" M 157.41 117.55 C 162.66 119.00 178.70 113.35 178.94 121.80 C 164.93 125.95 150.15 129.76 135.34 130.67 C 131.83 128.51 126.65 127.11 124.89 123.19 C 135.86 122.16 146.32 118.05 157.41 117.55 Z" />
<path fill="#b3d2e0" d=" M 117.36 129.71 C 118.58 134.71 117.76 139.91 117.96 144.99 C 115.63 140.25 117.68 134.72 117.36 129.71 Z" />
<path fill="#29b1ec" d=" M 178.39 131.39 C 181.14 129.40 186.27 131.07 184.88 134.75 C 181.84 136.62 177.46 141.27 174.09 137.75 C 171.29 133.23 175.58 132.02 178.39 131.39 Z" />
<path fill="#24b2ee" d=" M 210.34 132.25 C 215.94 131.97 225.05 133.09 226.14 139.89 C 220.55 139.85 213.09 138.47 218.14 144.92 C 214.13 142.47 208.99 147.25 205.87 145.13 C 203.38 140.49 205.19 133.95 210.34 132.25 Z" />
<path fill="#8fbfda" d=" M 117.96 144.99 C 119.58 148.13 118.05 154.78 121.75 149.73 C 124.51 143.00 133.16 144.96 133.03 151.80 C 124.97 149.66 123.33 156.60 119.17 161.36 C 118.64 155.92 118.01 150.47 117.96 144.99 Z" />
<path fill="#99c3d7" d=" M 290.91 163.06 C 292.02 160.24 292.13 156.39 294.95 154.69 C 295.32 158.09 292.95 160.68 290.91 163.06 Z" />
<path fill="#326a87" d=" M 282.29 163.32 C 290.05 164.87 286.56 179.73 278.16 176.93 C 272.75 173.46 276.20 164.32 282.29 163.32 Z" />
<path fill="#38b1e7" d=" M 121.15 173.14 C 122.94 170.11 123.87 164.63 129.16 167.04 C 128.64 171.80 125.38 175.64 122.59 179.33 C 122.07 177.27 121.57 175.21 121.15 173.14 Z" />
<path fill="#1d698a" d=" M 245.37 168.38 C 251.33 167.67 257.26 169.91 262.65 172.28 C 263.28 177.81 269.19 185.16 262.71 188.76 C 257.65 189.86 253.84 184.56 249.00 183.96 C 242.46 185.07 240.36 193.88 233.98 195.07 C 234.70 191.28 238.19 186.52 233.27 183.71 C 224.12 182.63 214.31 186.28 204.85 184.95 C 205.47 178.52 213.26 178.29 218.00 176.99 C 227.55 175.47 235.88 170.06 245.37 168.38 Z" />
<path fill="#176d91" d=" M 134.29 170.27 C 140.65 169.15 145.12 177.03 149.05 180.99 C 145.42 187.02 136.59 177.52 131.88 182.96 C 123.94 183.51 128.88 171.23 134.29 170.27 Z" />
<path fill="#2cc3f9" d=" M 273.29 177.36 C 273.63 177.30 274.33 177.19 274.67 177.13 C 280.00 189.86 287.02 202.27 289.96 215.82 C 280.55 221.32 268.50 221.53 258.06 219.72 C 257.12 214.33 260.70 208.53 257.45 203.59 C 254.19 194.94 263.96 201.98 267.99 199.01 C 272.04 194.02 264.44 179.75 273.29 177.36 Z" />
<path fill="#38bef3" d=" M 132.00 185.93 C 136.83 186.72 141.09 191.34 146.07 189.03 C 143.98 193.87 138.11 195.86 133.17 194.97 C 133.00 191.90 132.34 188.96 132.00 185.93 Z" />
<path fill="#79a9c2" d=" M 290.37 186.71 C 291.35 194.15 290.93 201.67 290.87 209.16 C 288.63 202.07 290.62 194.08 290.37 186.71 Z" />
<path fill="#d3d9db" d=" M 136.36 203.04 C 137.22 205.98 138.09 209.02 138.07 212.12 C 133.05 210.29 131.97 206.44 136.36 203.04 Z" />
<path fill="#2b7497" d=" M 143.40 204.47 C 148.28 202.68 158.28 204.27 155.91 211.76 C 150.57 216.77 146.90 205.05 141.09 208.65 C 138.52 206.71 140.58 204.02 143.40 204.47 Z" />
<path fill="#3de4f9" d=" M 115.86 227.78 C 121.59 222.35 129.29 219.61 136.01 215.65 C 139.31 217.07 139.46 221.36 140.61 224.34 C 144.04 240.95 134.62 256.17 134.54 272.60 C 134.50 275.35 129.66 277.58 128.53 274.42 C 123.83 267.90 121.59 258.27 115.05 253.79 C 115.53 260.15 113.13 267.77 117.95 273.03 C 125.08 283.80 131.37 295.27 140.20 304.77 C 142.11 305.84 142.14 307.98 142.00 309.83 C 134.07 310.16 126.22 311.42 118.29 311.79 C 107.88 303.05 102.47 289.54 103.97 276.00 C 107.89 267.50 95.62 271.16 95.96 275.99 C 97.06 294.67 97.15 313.40 97.11 332.13 C 94.34 333.36 91.55 334.55 88.85 335.94 C 83.91 337.91 78.31 336.66 73.07 337.00 C 69.20 337.33 66.51 341.16 62.12 339.56 C 57.99 335.45 53.83 330.92 48.27 328.78 C 51.30 342.01 35.88 335.01 28.75 335.16 C 26.27 333.32 24.31 330.91 22.11 328.76 C 21.96 319.41 20.98 308.20 26.01 300.06 C 33.39 296.02 37.64 288.08 44.94 283.86 C 48.23 280.90 52.89 278.41 53.89 273.73 C 56.67 271.23 59.73 269.06 62.82 266.96 C 67.07 266.59 69.72 263.12 71.90 259.81 C 82.85 250.62 94.56 242.28 106.85 234.99 C 111.05 234.53 113.78 231.15 115.86 227.78 Z" />
<path fill="#b8ccd6" d=" M 295.20 216.82 C 296.70 219.39 295.82 222.36 295.26 225.10 C 295.25 222.33 295.23 219.58 295.20 216.82 Z" />
<path fill="#276a8b" d=" M 253.97 222.98 C 264.25 222.35 273.56 227.54 282.37 231.79 C 277.61 232.20 274.68 236.50 270.82 238.87 C 262.65 246.03 251.04 245.15 241.04 243.85 C 241.04 243.18 241.05 241.84 241.06 241.17 C 248.32 239.72 255.78 239.57 262.98 237.79 C 263.91 230.68 252.42 230.05 253.97 222.98 Z" />
<path fill="#84bfce" d=" M 282.37 231.79 C 286.67 229.57 290.78 226.96 295.26 225.10 C 295.41 227.92 288.21 229.86 292.69 231.26 C 300.89 234.17 308.77 237.79 316.34 242.09 C 317.10 242.49 317.89 242.85 318.72 243.15 L 319.58 243.50 C 323.71 246.46 330.34 249.65 328.82 255.73 C 326.00 257.95 324.05 262.58 319.86 261.99 C 322.11 260.16 324.21 258.15 326.13 255.97 C 322.62 256.82 319.45 258.57 316.29 260.25 C 311.45 262.71 305.23 261.38 300.95 265.05 C 289.99 263.30 281.48 253.27 274.94 244.92 C 276.72 240.23 280.17 236.29 282.37 231.79 Z" />
<path fill="#73ceda" d=" M 106.85 234.99 C 109.30 231.96 112.70 229.96 115.86 227.78 C 113.78 231.15 111.05 234.53 106.85 234.99 Z" />
<path fill="#2c637f" d=" M 160.86 233.02 C 164.93 231.64 167.39 234.90 170.13 236.92 C 182.69 247.87 198.67 255.32 215.53 255.37 C 222.83 272.26 240.52 287.26 259.85 279.77 C 261.43 279.36 263.46 278.58 263.36 281.07 C 255.23 287.98 243.97 283.29 234.54 285.82 C 232.80 286.27 231.53 287.64 230.15 288.71 C 229.83 288.96 229.19 289.47 228.87 289.73 C 219.22 295.44 210.08 302.63 198.75 304.72 C 195.46 304.90 192.19 305.14 189.00 305.96 C 182.91 306.12 176.73 305.55 170.71 306.65 C 163.16 309.62 149.43 303.07 146.20 312.21 C 145.49 312.26 144.05 312.35 143.33 312.39 C 144.66 310.31 145.19 307.76 145.46 305.37 C 150.62 303.10 156.47 303.41 161.97 302.81 C 161.08 293.92 152.07 289.09 148.80 281.21 C 155.06 282.53 161.63 281.46 167.68 279.66 C 177.83 274.06 170.12 261.98 169.64 253.37 C 169.54 245.45 161.49 240.71 160.86 233.02 Z" />
<path fill="#648998" d=" M 316.29 260.25 C 319.45 258.57 322.62 256.82 326.13 255.97 C 324.21 258.15 322.11 260.16 319.86 261.99 C 316.07 262.50 312.22 262.69 308.56 263.81 C 306.77 264.20 305.22 265.25 304.01 266.59 C 302.46 268.18 300.11 268.61 298.01 269.00 C 291.33 269.09 284.67 268.86 278.00 268.98 C 284.82 266.75 292.39 269.25 299.18 267.29 C 299.80 266.57 300.39 265.82 300.95 265.05 C 305.23 261.38 311.45 262.71 316.29 260.25 Z" />
<path fill="#2f7394" d=" M 265.87 257.14 C 270.11 258.50 262.94 262.76 260.32 263.32 C 256.62 264.68 247.71 268.60 248.15 262.24 C 252.70 258.07 260.53 260.45 265.87 257.14 Z" />
<path fill="#72cdd9" d=" M 62.82 266.96 C 65.33 263.98 68.70 261.95 71.90 259.81 C 69.72 263.12 67.07 266.59 62.82 266.96 Z" />
<path fill="#b4c5cd" d=" M 308.56 263.81 C 312.22 262.69 316.07 262.50 319.86 261.99 C 319.82 265.71 311.99 263.39 308.56 263.81 Z" />
<path fill="#bcc5c9" d=" M 304.01 266.59 C 305.22 265.25 306.77 264.20 308.56 263.81 C 309.12 265.96 305.70 267.50 304.01 266.59 Z" />
<path fill="#485860" d=" M 275.27 267.14 C 283.13 265.01 291.23 266.94 299.18 267.29 C 292.39 269.25 284.82 266.75 278.00 268.98 C 277.66 269.13 276.98 269.43 276.64 269.59 C 276.24 269.74 275.45 270.06 275.05 270.21 C 275.10 269.44 275.22 267.91 275.27 267.14 Z" />
<path fill="#d4d4d4" d=" M 276.64 269.59 C 276.98 269.43 277.66 269.13 278.00 268.98 C 284.67 268.86 291.33 269.09 298.01 269.00 C 292.95 271.48 283.27 269.50 276.64 269.59 Z" />
<path fill="#b2c3ca" d=" M 275.05 270.21 C 275.45 270.06 276.24 269.74 276.64 269.59 C 272.31 276.10 265.68 283.07 257.63 285.64 C 249.95 286.22 242.22 286.19 234.54 285.82 C 243.97 283.29 255.23 287.98 263.36 281.07 C 267.57 277.81 271.53 274.22 275.05 270.21 Z" />
<path fill="#5dc9d7" d=" M 41.17 284.19 C 45.35 280.62 49.47 277.00 53.89 273.73 C 52.89 278.41 48.23 280.90 44.94 283.86 C 37.64 288.08 33.39 296.02 26.01 300.06 C 28.68 294.70 33.51 290.83 37.98 286.98 C 38.26 286.75 38.84 286.28 39.12 286.04 C 39.82 285.44 40.50 284.82 41.17 284.19 Z" />
<path fill="#a1b3bd" d=" M 230.15 288.71 C 231.53 287.64 232.80 286.27 234.54 285.82 C 235.14 287.99 232.00 289.97 230.15 288.71 Z" />
<path fill="#95b3c0" d=" M 198.75 304.72 C 210.08 302.63 219.22 295.44 228.87 289.73 C 221.84 297.21 211.46 303.26 200.87 304.83 C 200.34 304.80 199.28 304.74 198.75 304.72 Z" />
<path fill="#adc6d1" d=" M 189.00 305.96 C 192.19 305.14 195.46 304.90 198.75 304.72 C 199.28 304.74 200.34 304.80 200.87 304.83 C 199.32 306.63 192.59 306.15 188.97 307.01 L 189.00 305.96 Z" />
<path fill="#508da7" d=" M 170.71 306.65 C 176.73 305.55 182.91 306.12 189.00 305.96 L 188.97 307.01 C 182.87 307.03 176.79 306.95 170.71 306.65 Z" />
<path fill="#a0bcc9" d=" M 146.20 312.21 C 149.43 303.07 163.16 309.62 170.71 306.65 C 176.79 306.95 182.87 307.03 188.97 307.01 C 178.65 308.78 163.91 308.02 151.98 309.02 C 148.60 308.60 148.23 312.82 146.83 314.96 C 143.79 315.01 140.80 315.04 137.78 314.89 C 140.12 313.43 145.19 315.51 146.20 312.21 Z" />
<path fill="#586b73" d=" M 111.00 315.01 C 121.69 313.59 132.55 312.93 143.33 312.39 C 144.05 312.35 145.49 312.26 146.20 312.21 C 145.19 315.51 140.12 313.43 137.78 314.89 C 136.20 315.28 134.68 316.06 133.02 316.00 C 127.16 316.72 120.12 314.12 114.99 318.06 C 114.51 318.26 113.54 318.65 113.05 318.85 C 108.74 318.69 104.96 321.67 103.69 325.71 L 103.22 326.39 C 101.35 320.53 105.20 315.43 111.00 315.01 Z" />
<path fill="#9a9a9a" d=" M 114.99 318.06 C 120.12 314.12 127.16 316.72 133.02 316.00 C 128.74 317.86 120.82 316.46 114.99 318.06 Z" />
<path fill="#b1b2b3" d=" M 103.69 325.71 C 104.96 321.67 108.74 318.69 113.05 318.85 C 109.67 320.47 106.51 323.64 103.69 325.71 Z" />
<path fill="#a8bfc4" d=" M 103.22 326.39 L 103.69 325.71 C 103.94 332.53 94.80 335.92 88.85 335.94 C 91.55 334.55 94.34 333.36 97.11 332.13 C 99.81 331.13 101.72 328.73 103.22 326.39 Z" />
<path fill="#b2d9de" d=" M 22.11 328.76 C 24.31 330.91 26.27 333.32 28.75 335.16 C 30.46 336.59 32.34 337.80 34.22 338.99 C 29.10 338.58 21.58 334.46 22.11 328.76 Z" />
<path fill="#5f93a4" d=" M 48.27 328.78 C 53.83 330.92 57.99 335.45 62.12 339.56 C 61.19 339.64 60.25 339.72 59.32 339.80 C 51.00 338.66 42.59 339.00 34.22 338.99 C 32.34 337.80 30.46 336.59 28.75 335.16 C 35.88 335.01 51.30 342.01 48.27 328.78 Z" />
<path fill="#86cbd5" d=" M 62.12 339.56 C 66.51 341.16 69.20 337.33 73.07 337.00 C 69.67 341.07 62.49 344.28 59.32 339.80 C 60.25 339.72 61.19 339.64 62.12 339.56 Z" />
<path fill="#cfe2e6" d=" M 34.22 338.99 C 42.59 339.00 51.00 338.66 59.32 339.80 C 52.06 338.93 39.18 342.08 34.22 338.99 Z" />
</svg>
