<?xml version="1.0" encoding="UTF-8" ?>
<!DOCTYPE svg PUBLIC "-//W3C//DTD SVG 1.1//EN" "http://www.w3.org/Graphics/SVG/1.1/DTD/svg11.dtd">
<svg width="350pt" height="350pt" viewBox="0 0 350 350" version="1.1" xmlns="http://www.w3.org/2000/svg">
<path fill="#ffffff" d=" M 0.00 0.00 L 350.00 0.00 L 350.00 350.00 L 0.00 350.00 L 0.00 0.00 Z" />
<path fill="#40e3fa" d=" M 171.42 12.39 C 175.98 11.91 179.96 8.70 184.73 10.32 C 190.92 12.45 197.57 11.97 204.02 11.99 C 204.70 12.05 206.07 12.18 206.75 12.24 C 210.53 14.21 214.35 16.19 218.37 17.62 C 221.45 18.10 225.60 18.98 227.65 15.88 C 228.72 17.58 229.68 19.54 231.59 20.46 C 237.56 23.99 243.80 27.08 250.14 29.91 C 252.84 29.94 255.42 28.88 257.99 28.17 C 258.35 29.93 256.98 32.96 259.39 33.50 C 263.77 34.52 267.41 37.32 270.92 40.00 C 272.69 41.96 274.39 44.07 276.91 45.11 C 277.99 47.59 280.06 49.32 281.94 51.18 C 282.30 52.05 282.68 52.92 283.09 53.77 C 283.46 54.77 283.83 55.77 284.18 56.78 C 284.76 59.90 286.06 62.89 286.04 66.11 C 283.73 66.16 283.23 63.37 281.15 62.93 C 279.36 66.94 280.33 71.33 281.77 75.27 C 275.61 68.07 264.07 71.21 256.90 66.62 C 257.27 66.01 258.02 64.78 258.40 64.17 C 259.46 62.63 259.34 60.18 257.25 59.64 C 250.29 55.85 243.71 50.31 235.82 48.99 C 238.74 52.47 243.36 54.09 245.97 57.90 C 245.98 58.65 245.98 60.15 245.98 60.90 C 240.53 58.42 234.96 56.14 229.19 54.53 C 224.36 54.58 221.21 60.80 218.04 64.13 C 215.26 67.27 219.69 70.24 220.94 73.04 C 222.35 76.11 226.33 78.13 225.95 81.83 C 218.85 84.31 211.33 79.76 204.01 80.93 C 196.34 79.67 189.55 83.90 182.30 85.34 C 176.20 86.48 170.33 83.53 164.29 83.37 C 154.95 88.72 145.16 94.38 134.12 94.77 C 129.08 93.69 124.17 91.99 119.09 91.17 C 115.29 92.52 111.56 94.09 108.02 96.04 C 108.04 89.75 107.93 83.46 108.11 77.17 C 113.45 75.84 117.02 71.46 121.22 68.23 C 127.16 63.40 133.33 58.83 139.83 54.77 C 139.89 54.08 140.01 52.71 140.07 52.03 C 134.27 52.31 127.60 51.36 122.36 54.39 C 116.75 58.66 110.03 62.09 106.06 68.14 C 106.07 66.40 106.09 62.93 106.11 61.19 C 108.98 55.77 112.66 50.75 115.09 45.10 C 119.09 42.95 122.12 39.46 125.17 36.17 C 128.70 32.69 132.14 29.09 136.24 26.26 C 138.30 26.26 139.76 25.38 141.10 24.18 C 149.71 22.07 157.79 18.27 166.06 15.16 C 167.82 14.24 170.15 14.10 171.42 12.39 Z" />
<path fill="#5fbbe0" d=" M 184.73 10.32 C 191.14 10.46 197.54 10.96 203.96 11.07 L 204.02 11.99 C 197.57 11.97 190.92 12.45 184.73 10.32 Z" />
<path fill="#5fbbe0" d=" M 165.01 14.05 C 167.01 13.07 169.24 12.72 171.42 12.39 C 170.15 14.10 167.82 14.24 166.06 15.16 C 157.79 18.27 149.71 22.07 141.10 24.18 L 141.21 23.25 C 149.17 20.25 157.23 17.51 165.01 14.05 Z" />
<path fill="#5fbbe0" d=" M 206.75 12.24 C 213.12 11.81 218.11 18.62 224.80 16.89 C 226.45 14.71 227.74 12.03 231.04 12.92 L 230.85 13.74 C 229.47 14.03 227.93 14.22 227.65 15.88 C 225.60 18.98 221.45 18.10 218.37 17.62 C 214.35 16.19 210.53 14.21 206.75 12.24 Z" />
<path fill="#3991b8" d=" M 227.65 15.88 C 227.93 14.22 229.47 14.03 230.85 13.74 L 231.71 14.15 C 240.34 19.13 249.80 22.68 259.16 26.06 L 259.29 27.20 C 258.96 27.44 258.31 27.93 257.99 28.17 C 255.42 28.88 252.84 29.94 250.14 29.91 C 243.80 27.08 237.56 23.99 231.59 20.46 C 229.68 19.54 228.72 17.58 227.65 15.88 Z" />
<path fill="#5fbbe0" d=" M 231.71 14.15 C 239.46 14.86 246.99 17.36 253.64 21.40 C 255.02 23.81 259.13 23.15 259.16 26.06 C 249.80 22.68 240.34 19.13 231.71 14.15 Z" />
<path fill="#3991b8" d=" M 174.34 21.45 C 182.38 21.23 191.37 20.48 198.80 24.24 C 198.87 24.67 199.01 25.51 199.08 25.94 C 187.21 25.50 175.47 26.96 163.89 28.96 C 164.26 23.75 170.02 22.33 174.34 21.45 Z" />
<path fill="#5fbbe0" d=" M 125.21 35.18 C 127.43 31.37 131.26 26.35 136.24 26.26 C 132.14 29.09 128.70 32.69 125.17 36.17 L 125.21 35.18 Z" />
<path fill="#5fbbe0" d=" M 259.29 27.20 C 261.32 26.64 257.46 31.45 259.68 32.28 C 261.98 33.35 264.86 33.22 266.86 35.08 C 268.42 36.20 269.91 37.44 271.21 38.87 L 270.92 40.00 C 267.41 37.32 263.77 34.52 259.39 33.50 C 256.98 32.96 258.35 29.93 257.99 28.17 C 258.31 27.93 258.96 27.44 259.29 27.20 Z" />
<path fill="#000000" d=" M 35.04 35.04 C 64.09 35.05 93.15 34.82 122.20 35.15 C 119.10 38.42 115.75 41.46 112.93 44.98 C 90.30 45.10 67.67 44.85 45.05 45.07 C 44.78 60.64 45.30 76.22 44.80 91.79 C 42.98 118.78 44.48 145.94 44.01 173.00 C 44.00 183.33 43.97 193.67 44.01 204.00 C 44.13 216.07 43.68 228.15 44.22 240.22 C 43.85 254.18 43.89 268.16 44.22 282.13 C 40.72 283.93 37.56 286.29 34.17 288.26 C 34.03 276.93 33.63 265.56 34.27 254.25 C 35.95 227.23 34.54 200.07 35.00 173.00 C 35.00 162.99 35.02 152.99 35.00 142.99 C 35.00 130.66 35.02 118.33 35.00 106.00 C 35.04 82.34 34.93 58.69 35.04 35.04 Z" />
<path fill="#266481" d=" M 122.20 35.15 C 122.71 35.14 123.72 35.13 124.22 35.12 C 121.16 38.43 117.63 41.34 115.09 45.10 L 114.06 45.06 L 112.93 44.98 C 115.75 41.46 119.10 38.42 122.20 35.15 Z" />
<path fill="#3991b8" d=" M 124.22 35.12 L 125.21 35.18 L 125.17 36.17 C 122.12 39.46 119.09 42.95 115.09 45.10 C 117.63 41.34 121.16 38.43 124.22 35.12 Z" />
<path fill="#266481" d=" M 266.86 35.08 C 267.60 35.10 269.08 35.13 269.82 35.15 C 272.89 38.43 276.27 41.46 279.06 45.00 L 277.91 45.08 L 276.91 45.11 C 275.13 42.92 273.26 40.80 271.21 38.87 C 269.91 37.44 268.42 36.20 266.86 35.08 Z" />
<path fill="#000000" d=" M 269.82 35.15 C 287.86 34.88 305.92 34.96 323.97 35.06 C 323.87 68.95 324.34 102.87 323.73 136.75 C 322.13 154.10 323.38 171.59 323.00 189.00 C 322.98 195.33 322.96 201.67 323.00 208.01 C 322.97 213.67 322.95 219.33 323.00 225.00 C 322.95 231.36 323.14 237.73 322.94 244.09 C 319.78 242.11 316.51 240.29 313.01 238.99 C 312.99 230.06 312.88 221.13 313.25 212.22 C 314.90 191.54 313.59 170.73 313.99 150.00 C 314.01 142.33 314.02 134.66 313.99 127.00 C 313.98 117.26 314.15 107.52 313.79 97.78 C 314.15 80.21 314.05 62.62 313.93 45.05 C 302.30 44.88 290.68 45.04 279.06 45.00 C 276.27 41.46 272.89 38.43 269.82 35.15 Z" />
<path fill="#3991b8" d=" M 271.21 38.87 C 273.26 40.80 275.13 42.92 276.91 45.11 C 274.39 44.07 272.69 41.96 270.92 40.00 L 271.21 38.87 Z" />
<path fill="#3991b8" d=" M 181.28 42.22 C 190.54 41.78 200.02 41.22 208.93 44.22 C 209.12 46.84 208.49 49.77 206.80 51.82 C 199.33 54.36 191.15 54.52 183.97 57.87 C 179.86 58.62 175.97 61.12 171.72 60.72 C 173.79 58.91 178.92 59.38 178.81 56.25 C 174.67 53.79 168.98 52.69 165.08 56.10 C 165.64 57.42 166.35 58.68 167.07 59.92 C 159.99 60.22 153.33 57.87 146.84 55.36 C 141.77 58.91 140.69 52.67 143.22 51.14 C 153.07 50.72 162.93 51.30 172.78 50.82 C 175.65 47.99 178.35 44.99 181.28 42.22 Z" />
<path fill="#ffffff" d=" M 45.05 45.07 C 67.67 44.85 90.30 45.10 112.93 44.98 L 114.06 45.06 C 111.36 50.33 106.04 54.85 106.11 61.19 C 106.09 62.93 106.07 66.40 106.06 68.14 C 106.10 68.79 106.18 70.10 106.22 70.75 C 107.63 80.53 106.27 90.50 107.58 100.26 C 107.88 102.70 108.35 105.16 109.87 107.17 C 110.67 108.59 111.73 109.83 112.68 111.14 C 112.62 113.95 114.03 116.19 115.61 118.37 C 116.36 121.46 117.01 124.60 117.26 127.78 C 117.11 131.60 117.28 135.42 117.77 139.22 C 117.92 141.07 118.07 142.92 118.27 144.77 C 118.02 150.62 119.01 156.40 119.16 162.23 C 118.45 165.80 119.29 169.16 120.97 172.24 C 121.39 174.92 121.98 177.53 122.62 180.17 C 123.49 184.18 125.13 188.06 128.12 190.96 C 128.74 192.78 130.17 194.12 131.81 195.06 C 132.53 198.29 134.67 200.78 136.55 203.40 C 137.20 206.20 137.94 209.03 138.50 211.86 C 137.40 215.92 132.66 216.37 129.88 218.86 L 129.22 219.19 C 125.90 220.75 122.77 222.70 119.64 224.61 C 99.21 240.24 77.14 253.75 57.83 270.84 L 57.22 271.22 C 52.91 273.76 49.05 277.02 45.82 280.83 C 45.42 281.16 44.62 281.80 44.22 282.13 C 43.89 268.16 43.85 254.18 44.22 240.22 C 45.72 228.21 44.76 216.06 44.99 204.00 C 45.00 193.66 45.03 183.33 44.99 173.00 C 44.85 145.93 45.30 118.85 44.80 91.79 C 45.30 76.22 44.78 60.64 45.05 45.07 Z" />
<path fill="#5fbbe0" d=" M 114.06 45.06 L 115.09 45.10 C 112.66 50.75 108.98 55.77 106.11 61.19 C 106.04 54.85 111.36 50.33 114.06 45.06 Z" />
<path fill="#266481" d=" M 201.34 45.56 C 203.02 45.41 206.37 45.13 208.05 44.99 C 207.45 46.96 207.34 49.30 205.79 50.81 C 198.55 52.32 191.47 55.43 183.96 55.00 C 183.36 52.36 185.50 50.77 187.30 49.32 C 191.69 47.07 196.42 45.86 201.34 45.56 Z" />
<path fill="#5fbbe0" d=" M 276.91 45.11 L 277.91 45.08 C 279.42 46.98 281.62 48.61 281.94 51.18 C 280.06 49.32 277.99 47.59 276.91 45.11 Z" />
<path fill="#ffffff" d=" M 277.91 45.08 L 279.06 45.00 C 290.68 45.04 302.30 44.88 313.93 45.05 C 314.05 62.62 314.15 80.21 313.79 97.78 C 312.46 107.46 313.07 117.26 313.01 127.00 C 312.98 134.67 312.97 142.33 313.01 150.00 C 313.10 170.74 312.74 191.48 313.25 212.22 C 312.88 221.13 312.99 230.06 313.01 238.99 L 312.97 240.12 C 305.82 236.25 297.73 234.22 290.78 230.11 C 292.27 228.47 295.17 227.59 295.06 224.99 C 295.39 221.35 295.08 217.74 293.72 214.37 C 289.23 205.82 292.11 195.86 290.34 186.74 C 288.83 180.34 288.77 173.72 289.11 167.20 C 291.43 162.95 294.12 158.62 294.84 153.76 C 295.03 152.25 295.09 150.73 295.01 149.21 C 290.72 134.10 291.53 117.89 286.22 103.03 C 284.38 100.64 285.52 97.80 286.15 95.22 C 286.92 91.85 288.34 88.24 287.29 84.75 C 287.58 81.90 287.94 79.06 288.27 76.23 C 289.30 68.84 290.74 58.15 283.09 53.77 C 282.68 52.92 282.30 52.05 281.94 51.18 C 281.62 48.61 279.42 46.98 277.91 45.08 Z" />
<path fill="#3991b8" d=" M 235.82 48.99 C 243.71 50.31 250.29 55.85 257.25 59.64 C 259.34 60.18 259.46 62.63 258.40 64.17 C 257.18 58.96 250.57 57.80 246.18 55.99 C 246.13 56.46 246.03 57.42 245.97 57.90 C 243.36 54.09 238.74 52.47 235.82 48.99 Z" />
<path fill="#3991b8" d=" M 122.36 54.39 C 127.60 51.36 134.27 52.31 140.07 52.03 C 140.01 52.71 139.89 54.08 139.83 54.77 C 133.33 58.83 127.16 63.40 121.22 68.23 C 117.02 71.46 113.45 75.84 108.11 77.17 C 108.02 74.90 108.29 72.26 106.22 70.75 C 106.18 70.10 106.10 68.79 106.06 68.14 C 110.03 62.09 116.75 58.66 122.36 54.39 Z" />
<path fill="#266481" d=" M 165.08 56.10 C 168.98 52.69 174.67 53.79 178.81 56.25 C 178.92 59.38 173.79 58.91 171.72 60.72 C 170.16 61.49 168.56 60.28 167.07 59.92 C 166.35 58.68 165.64 57.42 165.08 56.10 Z" />
<path fill="#5fbbe0" d=" M 218.04 64.13 C 221.21 60.80 224.36 54.58 229.19 54.53 C 225.49 57.74 222.45 61.84 218.04 64.13 Z" />
<path fill="#5fbbe0" d=" M 283.09 53.77 C 290.74 58.15 289.30 68.84 288.27 76.23 C 288.02 69.55 289.52 61.98 284.18 56.78 C 283.83 55.77 283.46 54.77 283.09 53.77 Z" />
<path fill="#3991b8" d=" M 218.04 64.13 C 222.45 61.84 225.49 57.74 229.19 54.53 C 234.96 56.14 240.53 58.42 245.98 60.90 C 245.98 60.15 245.98 58.65 245.97 57.90 C 248.59 57.89 248.96 60.60 249.56 62.54 C 251.67 64.36 253.87 66.69 256.90 66.62 C 264.07 71.21 275.61 68.07 281.77 75.27 C 280.33 71.33 279.36 66.94 281.15 62.93 C 283.23 63.37 283.73 66.16 286.04 66.11 C 286.06 62.89 284.76 59.90 284.18 56.78 C 289.52 61.98 288.02 69.55 288.27 76.23 C 287.94 79.06 287.58 81.90 287.29 84.75 C 286.21 88.12 286.15 91.70 286.15 95.22 C 285.52 97.80 284.38 100.64 286.22 103.03 C 285.56 104.05 284.77 104.97 284.03 105.93 C 281.18 114.85 276.61 124.22 268.76 129.76 C 266.70 131.68 266.55 134.77 264.84 136.95 C 259.93 137.87 256.69 132.50 252.10 132.19 C 249.49 132.64 242.40 132.03 246.79 134.46 C 244.24 137.34 241.61 140.18 238.69 142.69 C 234.63 144.13 230.37 144.85 226.35 146.36 C 224.17 150.00 223.27 154.27 220.78 157.73 C 214.08 160.65 207.53 163.97 202.70 169.60 C 200.42 169.84 198.14 170.13 198.99 173.03 C 204.64 173.19 209.02 168.23 214.89 168.77 C 229.01 167.08 239.38 156.25 252.15 151.24 C 261.52 149.75 270.98 148.85 280.39 147.62 C 285.44 146.37 290.05 149.89 295.01 149.21 C 295.09 150.73 295.03 152.25 294.84 153.76 C 292.13 157.76 289.45 162.29 289.11 167.20 C 288.77 173.72 288.83 180.34 290.34 186.74 C 290.04 194.13 289.74 201.54 290.08 208.94 C 290.72 211.04 291.85 213.12 293.72 214.37 C 295.08 217.74 295.39 221.35 295.06 224.99 C 291.00 227.73 285.99 229.06 282.30 232.30 C 280.08 236.57 276.51 240.38 274.97 244.94 C 280.56 253.60 289.16 260.08 298.08 264.99 C 303.03 264.42 307.72 262.33 312.67 261.55 C 317.41 260.35 321.26 256.95 326.10 255.96 C 323.96 259.42 320.50 261.49 316.77 262.81 C 316.33 262.84 315.45 262.92 315.02 262.95 C 309.35 261.38 305.18 265.23 300.85 267.90 C 298.03 270.02 294.02 268.77 290.75 268.76 C 292.79 267.55 298.55 269.73 298.04 266.02 C 290.52 266.28 282.64 264.98 275.34 267.26 C 275.18 267.88 274.87 269.11 274.72 269.73 C 271.90 274.15 266.07 276.38 263.93 281.00 C 263.42 281.32 262.40 281.96 261.89 282.28 C 261.35 282.37 260.26 282.56 259.72 282.65 C 260.89 281.45 262.62 280.76 263.17 279.06 C 255.88 280.76 248.31 282.93 240.98 280.09 C 233.52 279.87 229.09 273.43 224.21 268.79 C 220.40 264.98 218.14 260.00 215.60 255.34 C 211.07 254.83 206.53 254.43 202.01 253.92 C 188.23 250.58 176.25 242.48 165.60 233.37 C 159.49 229.34 160.79 234.14 161.59 236.38 C 163.31 240.70 166.55 244.20 168.59 248.35 C 170.10 256.86 172.59 265.25 173.01 273.91 C 171.83 276.30 169.68 277.98 167.70 279.69 C 161.62 281.27 155.07 282.74 148.84 281.14 C 151.93 289.15 161.15 293.88 161.97 302.82 C 156.41 303.27 150.63 303.31 145.33 305.29 C 146.63 308.84 144.06 312.48 140.64 312.47 C 135.64 311.62 130.97 314.01 126.01 313.88 C 120.00 314.29 113.50 312.83 108.01 316.02 C 103.76 316.89 102.86 321.17 102.07 324.73 C 102.50 324.84 103.37 325.06 103.80 325.17 L 103.84 325.88 C 102.60 328.99 99.88 330.60 96.98 331.95 C 96.96 319.63 97.14 307.30 96.93 294.98 C 96.32 288.09 95.35 281.13 96.18 274.22 C 98.08 271.97 100.94 270.57 103.92 270.95 C 104.34 278.32 102.95 286.01 105.91 293.03 C 107.09 300.85 113.28 306.22 118.26 311.80 C 126.20 311.47 134.06 310.05 142.01 309.87 C 143.10 304.81 136.93 302.88 135.07 298.95 C 128.20 289.04 121.54 278.98 115.33 268.65 C 115.26 264.95 115.12 257.54 115.04 253.84 C 115.47 253.95 116.32 254.16 116.75 254.27 C 121.29 261.23 125.15 268.60 129.34 275.77 C 133.64 277.05 136.10 271.58 134.95 267.98 C 135.26 255.99 141.83 245.09 141.07 233.01 C 141.96 227.32 140.05 221.95 137.98 216.79 C 138.43 215.19 139.08 213.52 138.50 211.86 C 137.94 209.03 137.20 206.20 136.55 203.40 C 134.67 200.78 132.53 198.29 131.81 195.06 C 132.35 192.78 130.33 190.85 128.12 190.96 C 125.13 188.06 123.49 184.18 122.62 180.17 C 123.71 175.36 129.27 172.62 129.15 167.05 C 124.21 164.80 123.27 169.75 120.97 172.24 C 119.29 169.16 118.45 165.80 119.16 162.23 C 121.38 159.03 123.10 155.51 125.41 152.37 C 127.95 152.23 130.49 152.05 133.02 151.84 C 133.58 148.25 128.38 142.94 125.15 146.12 C 123.26 147.21 122.08 149.04 120.68 150.63 C 117.41 152.76 119.00 146.92 118.27 144.77 C 118.07 142.92 117.92 141.07 117.77 139.22 C 117.91 135.39 117.74 131.57 117.26 127.78 C 117.01 124.60 116.36 121.46 115.61 118.37 C 114.03 116.19 112.62 113.95 112.68 111.14 C 113.85 110.14 115.04 109.17 116.19 108.15 C 123.87 108.05 113.24 123.85 123.88 120.35 C 127.02 120.60 130.27 121.51 133.33 120.43 C 142.65 117.91 151.64 114.09 161.23 112.67 C 158.57 108.32 153.87 106.12 149.13 104.78 C 142.87 101.66 135.74 104.10 129.12 103.90 C 125.63 102.52 122.41 100.58 119.00 99.05 C 116.29 101.39 112.99 103.91 113.95 107.97 C 112.56 107.90 111.19 107.59 109.87 107.17 C 108.35 105.16 107.88 102.70 107.58 100.26 C 107.74 98.85 107.89 97.45 108.02 96.04 C 111.56 94.09 115.29 92.52 119.09 91.17 C 124.17 91.99 129.08 93.69 134.12 94.77 C 145.16 94.38 154.95 88.72 164.29 83.37 C 170.33 83.53 176.20 86.48 182.30 85.34 C 189.55 83.90 196.34 79.67 204.01 80.93 C 211.33 79.76 218.85 84.31 225.95 81.83 C 226.33 78.13 222.35 76.11 220.94 73.04 C 219.69 70.24 215.26 67.27 218.04 64.13 Z" />
<path fill="#266481" d=" M 246.18 55.99 C 250.57 57.80 257.18 58.96 258.40 64.17 C 258.02 64.78 257.27 66.01 256.90 66.62 C 253.87 66.69 251.67 64.36 249.56 62.54 C 248.96 60.60 248.59 57.89 245.97 57.90 C 246.03 57.42 246.13 56.46 246.18 55.99 Z" />
<path fill="#5fbbe0" d=" M 106.22 70.75 C 108.29 72.26 108.02 74.90 108.11 77.17 C 107.93 83.46 108.04 89.75 108.02 96.04 C 107.89 97.45 107.74 98.85 107.58 100.26 C 106.27 90.50 107.63 80.53 106.22 70.75 Z" />
<path fill="#5fbbe0" d=" M 247.05 74.64 C 244.01 75.65 242.96 68.82 246.20 71.78 C 246.49 72.73 246.77 73.68 247.05 74.64 Z" />
<path fill="#40e3fa" d=" M 246.20 71.78 C 250.32 74.35 258.70 73.43 260.05 78.91 C 260.16 81.54 262.68 83.00 264.20 84.86 C 257.43 84.51 252.10 78.57 247.05 74.64 C 246.77 73.68 246.49 72.73 246.20 71.78 Z" />
<path fill="#5fbbe0" d=" M 128.33 75.41 C 128.17 72.99 135.95 75.35 133.30 77.30 C 131.75 79.18 129.65 79.77 126.98 79.05 C 121.70 79.87 117.73 84.98 112.00 84.00 C 112.14 82.37 111.36 80.09 113.24 79.24 C 118.24 77.84 123.23 76.40 128.33 75.41 Z" />
<path fill="#5fbbe0" d=" M 260.05 78.91 C 261.58 79.72 266.80 84.53 264.20 84.86 C 262.68 83.00 260.16 81.54 260.05 78.91 Z" />
<path fill="#5fbbe0" d=" M 287.29 84.75 C 288.34 88.24 286.92 91.85 286.15 95.22 C 286.15 91.70 286.21 88.12 287.29 84.75 Z" />
<path fill="#266481" d=" M 166.98 87.00 C 178.99 86.68 189.69 92.73 200.76 96.46 C 214.23 102.38 229.15 101.00 243.35 103.44 C 255.23 105.53 266.31 98.77 278.04 99.02 C 278.56 101.49 275.73 102.17 274.00 102.96 C 244.14 110.12 212.43 117.77 182.09 108.78 C 182.01 107.17 181.51 105.09 183.22 104.14 C 187.83 103.89 192.46 104.14 197.08 103.92 L 196.86 103.08 C 187.39 97.74 177.19 93.88 167.15 89.77 C 167.11 89.08 167.02 87.69 166.98 87.00 Z" />
<path fill="#266481" d=" M 44.01 173.00 C 44.48 145.94 42.98 118.78 44.80 91.79 C 45.30 118.85 44.85 145.93 44.99 173.00 L 44.01 173.00 Z" />
<path fill="#5fbbe0" d=" M 313.01 127.00 C 313.07 117.26 312.46 107.46 313.79 97.78 C 314.15 107.52 313.98 117.26 313.99 127.00 L 313.01 127.00 Z" />
<path fill="#40e3fa" d=" M 113.95 107.97 C 112.99 103.91 116.29 101.39 119.00 99.05 C 122.41 100.58 125.63 102.52 129.12 103.90 C 135.74 104.10 142.87 101.66 149.13 104.78 C 153.87 106.12 158.57 108.32 161.23 112.67 C 151.64 114.09 142.65 117.91 133.33 120.43 C 130.27 121.51 127.02 120.60 123.88 120.35 C 113.24 123.85 123.87 108.05 116.19 108.15 C 115.63 108.10 114.51 108.02 113.95 107.97 Z" />
<path fill="#5fbbe0" d=" M 286.22 103.03 C 291.53 117.89 290.72 134.10 295.01 149.21 C 290.05 149.89 285.44 146.37 280.39 147.62 C 270.98 148.85 261.52 149.75 252.15 151.24 C 239.38 156.25 229.01 167.08 214.89 168.77 C 209.02 168.23 204.64 173.19 198.99 173.03 C 198.14 170.13 200.42 169.84 202.70 169.60 C 207.53 163.97 214.08 160.65 220.78 157.73 C 223.27 154.27 224.17 150.00 226.35 146.36 C 230.37 144.85 234.63 144.13 238.69 142.69 C 241.61 140.18 244.24 137.34 246.79 134.46 C 242.40 132.03 249.49 132.64 252.10 132.19 C 256.69 132.50 259.93 137.87 264.84 136.95 C 266.55 134.77 266.70 131.68 268.76 129.76 C 276.61 124.22 281.18 114.85 284.03 105.93 C 284.77 104.97 285.56 104.05 286.22 103.03 Z" />
<path fill="#5fbbe0" d=" M 34.03 106.01 L 35.00 106.00 C 35.02 118.33 35.00 130.66 35.00 142.99 L 34.04 143.01 C 33.94 130.68 33.97 118.34 34.03 106.01 Z" />
<path fill="#5fbbe0" d=" M 109.87 107.17 C 111.19 107.59 112.56 107.90 113.95 107.97 C 114.51 108.02 115.63 108.10 116.19 108.15 C 115.04 109.17 113.85 110.14 112.68 111.14 C 111.73 109.83 110.67 108.59 109.87 107.17 Z" />
<path fill="#266481" d=" M 157.34 117.55 C 164.13 116.19 170.95 118.01 177.74 118.25 C 179.52 118.98 179.59 122.06 177.71 122.70 C 163.59 125.36 149.80 130.21 135.32 130.67 C 131.85 128.47 126.53 127.08 124.90 123.15 C 135.85 122.24 146.28 118.02 157.34 117.55 Z" />
<path fill="#3991b8" d=" M 313.01 127.00 L 313.99 127.00 C 314.02 134.66 314.01 142.33 313.99 150.00 L 313.01 150.00 C 312.97 142.33 312.98 134.67 313.01 127.00 Z" />
<path fill="#5fbbe0" d=" M 117.26 127.78 C 117.74 131.57 117.91 135.39 117.77 139.22 C 117.28 135.42 117.11 131.60 117.26 127.78 Z" />
<path fill="#5fbbe0" d=" M 178.13 131.82 C 177.84 126.20 187.78 134.54 184.29 134.61 C 182.69 132.77 180.61 131.71 178.13 131.82 Z" />
<path fill="#5fbbe0" d=" M 174.31 136.71 C 173.03 134.42 175.38 132.84 177.15 131.94 C 176.36 133.87 174.64 135.84 176.14 137.90 C 177.46 137.71 178.74 137.33 180.04 137.01 C 179.37 139.91 174.38 139.92 174.31 136.71 Z" />
<path fill="#40e3fa" d=" M 177.15 131.94 L 178.13 131.82 C 180.61 131.71 182.69 132.77 184.29 134.61 C 182.95 135.53 181.55 136.40 180.04 137.01 C 178.74 137.33 177.46 137.71 176.14 137.90 C 174.64 135.84 176.36 133.87 177.15 131.94 Z" />
<path fill="#40e3fa" d=" M 211.27 132.28 C 216.26 132.04 224.44 133.70 225.12 139.97 C 221.90 140.73 218.97 139.75 215.97 139.00 C 215.90 140.68 216.27 142.34 216.75 143.94 C 213.49 144.18 210.34 144.97 207.16 145.67 C 201.85 141.88 206.27 134.02 211.27 132.28 Z" />
<path fill="#266481" d=" M 323.00 189.00 C 323.38 171.59 322.13 154.10 323.73 136.75 C 324.29 154.16 323.92 171.58 323.97 189.00 L 323.00 189.00 Z" />
<path fill="#3991b8" d=" M 34.04 143.01 L 35.00 142.99 C 35.02 152.99 35.00 162.99 35.00 173.00 L 34.05 173.00 C 34.00 163.01 33.87 153.00 34.04 143.01 Z" />
<path fill="#5fbbe0" d=" M 118.27 144.77 C 119.00 146.92 117.41 152.76 120.68 150.63 C 122.08 149.04 123.26 147.21 125.15 146.12 C 128.38 142.94 133.58 148.25 133.02 151.84 C 130.49 152.05 127.95 152.23 125.41 152.37 C 123.10 155.51 121.38 159.03 119.16 162.23 C 119.01 156.40 118.02 150.62 118.27 144.77 Z" />
<path fill="#266481" d=" M 313.01 150.00 L 313.99 150.00 C 313.59 170.73 314.90 191.54 313.25 212.22 C 312.74 191.48 313.10 170.74 313.01 150.00 Z" />
<path fill="#5fbbe0" d=" M 289.11 167.20 C 289.45 162.29 292.13 157.76 294.84 153.76 C 294.12 158.62 291.43 162.95 289.11 167.20 Z" />
<path fill="#266481" d=" M 282.28 163.37 C 284.78 162.37 283.92 167.02 286.90 167.22 C 286.91 172.02 284.45 178.96 278.11 176.95 C 276.37 177.26 277.22 174.59 276.15 173.80 C 273.33 170.99 276.96 167.88 278.37 165.36 C 279.08 163.82 280.89 163.89 282.28 163.37 Z" />
<path fill="#5fbbe0" d=" M 120.97 172.24 C 123.27 169.75 124.21 164.80 129.15 167.05 C 129.27 172.62 123.71 175.36 122.62 180.17 C 121.98 177.53 121.39 174.92 120.97 172.24 Z" />
<path fill="#266481" d=" M 245.33 168.40 C 251.32 167.59 257.21 170.04 262.70 172.24 C 263.54 176.56 265.07 180.69 265.96 185.00 C 265.57 186.65 263.82 187.56 262.75 188.78 C 257.33 189.98 253.40 183.73 248.06 184.00 C 245.14 185.54 242.93 188.30 240.25 190.23 C 238.81 192.59 237.05 194.98 234.00 195.07 C 233.90 193.50 233.83 191.73 235.85 191.61 C 237.87 187.73 235.13 185.32 232.72 183.22 C 223.40 183.42 214.24 185.82 204.88 184.95 C 205.43 178.50 213.29 178.31 218.00 177.00 C 227.54 175.48 235.86 170.05 245.33 168.40 Z" />
<path fill="#266481" d=" M 134.27 170.28 C 140.56 168.93 144.38 176.91 148.78 180.25 C 149.51 185.14 142.16 182.76 139.32 181.63 C 137.48 181.52 134.38 179.05 133.59 181.63 C 132.88 183.81 129.23 183.47 128.11 181.77 C 126.49 176.87 129.99 172.12 134.27 170.28 Z" />
<path fill="#266481" d=" M 34.05 173.00 L 35.00 173.00 C 34.54 200.07 35.95 227.23 34.27 254.25 C 33.72 227.18 34.06 200.08 34.05 173.00 Z" />
<path fill="#3991b8" d=" M 44.01 173.00 L 44.99 173.00 C 45.03 183.33 45.00 193.66 44.99 204.00 L 44.01 204.00 C 43.97 193.67 44.00 183.33 44.01 173.00 Z" />
<path fill="#40e3fa" d=" M 270.23 178.10 L 274.67 178.16 C 280.05 190.69 286.97 202.51 289.91 215.88 C 287.43 217.64 284.42 218.34 281.66 219.53 C 273.79 220.02 265.80 222.03 258.04 219.77 C 257.00 214.39 260.87 208.51 257.41 203.65 C 253.62 195.97 258.82 199.73 261.25 200.53 C 263.84 200.21 266.36 199.41 268.89 198.76 C 269.51 191.89 267.81 184.72 270.23 178.10 Z" />
<path fill="#40e3fa" d=" M 133.02 186.94 C 136.57 187.22 139.60 189.45 143.02 190.29 C 142.18 191.40 141.39 192.55 140.66 193.73 C 139.45 196.49 134.70 195.85 133.14 193.77 C 133.11 192.07 133.05 188.65 133.02 186.94 Z" />
<path fill="#5fbbe0" d=" M 290.34 186.74 C 292.11 195.86 289.23 205.82 293.72 214.37 C 291.85 213.12 290.72 211.04 290.08 208.94 C 289.74 201.54 290.04 194.13 290.34 186.74 Z" />
<path fill="#5fbbe0" d=" M 143.02 190.29 C 143.79 189.33 144.79 188.88 146.03 188.93 C 145.31 191.44 143.11 193.13 140.66 193.73 C 141.39 192.55 142.18 191.40 143.02 190.29 Z" />
<path fill="#3991b8" d=" M 323.00 189.00 L 323.97 189.00 C 324.00 195.32 324.16 201.66 323.96 207.99 L 323.00 208.01 C 322.96 201.67 322.98 195.33 323.00 189.00 Z" />
<path fill="#5fbbe0" d=" M 128.12 190.96 C 130.33 190.85 132.35 192.78 131.81 195.06 C 130.17 194.12 128.74 192.78 128.12 190.96 Z" />
<path fill="#5fbbe0" d=" M 44.01 204.00 L 44.99 204.00 C 44.76 216.06 45.72 228.21 44.22 240.22 C 43.68 228.15 44.13 216.07 44.01 204.00 Z" />
<path fill="#266481" d=" M 144.33 204.41 C 148.52 202.79 156.93 205.00 155.82 210.77 C 151.36 217.24 146.00 204.55 139.97 207.85 C 139.46 205.24 142.51 204.91 144.33 204.41 Z" />
<path fill="#5fbbe0" d=" M 323.00 208.01 L 323.96 207.99 C 324.07 213.65 324.07 219.32 323.97 224.99 L 323.00 225.00 C 322.95 219.33 322.97 213.67 323.00 208.01 Z" />
<path fill="#5fbbe0" d=" M 138.50 211.86 C 139.08 213.52 138.43 215.19 137.98 216.79 C 135.17 217.06 132.68 218.57 129.88 218.86 C 132.66 216.37 137.40 215.92 138.50 211.86 Z" />
<path fill="#40e3fa" d=" M 129.88 218.86 C 132.68 218.57 135.17 217.06 137.98 216.79 C 140.05 221.95 141.96 227.32 141.07 233.01 C 141.83 245.09 135.26 255.99 134.95 267.98 C 136.10 271.58 133.64 277.05 129.34 275.77 C 125.15 268.60 121.29 261.23 116.75 254.27 C 116.32 254.16 115.47 253.95 115.04 253.84 C 115.12 257.54 115.26 264.95 115.33 268.65 C 121.54 278.98 128.20 289.04 135.07 298.95 C 136.93 302.88 143.10 304.81 142.01 309.87 C 134.06 310.05 126.20 311.47 118.26 311.80 C 113.28 306.22 107.09 300.85 105.91 293.03 C 102.95 286.01 104.34 278.32 103.92 270.95 C 100.94 270.57 98.08 271.97 96.18 274.22 C 95.35 281.13 96.32 288.09 96.93 294.98 C 97.14 307.30 96.96 319.63 96.98 331.95 C 91.40 335.04 85.03 336.13 78.76 336.77 C 76.86 337.04 74.95 336.94 73.05 336.98 C 69.37 335.91 67.72 340.78 64.14 339.98 C 60.90 337.51 58.45 333.90 54.86 332.03 C 52.59 331.05 50.52 329.64 48.18 328.82 C 48.17 331.49 48.06 334.15 47.86 336.82 C 46.33 337.04 44.78 337.17 43.24 337.36 C 42.48 337.23 40.97 336.98 40.21 336.85 C 37.46 336.29 34.58 336.18 32.02 334.93 C 28.19 332.91 25.25 329.71 22.08 326.82 C 21.30 319.14 22.24 311.59 24.25 304.23 C 27.29 300.30 30.78 296.76 34.16 293.13 C 37.86 289.45 42.24 286.56 46.05 283.01 C 49.92 279.28 54.65 276.05 57.22 271.22 L 57.83 270.84 C 65.66 269.58 69.80 261.81 76.54 258.43 C 84.52 250.97 93.99 245.26 102.75 238.75 C 105.98 236.16 110.40 235.32 113.15 232.13 C 116.69 227.78 121.58 224.87 126.59 222.49 C 128.05 221.97 128.54 220.42 129.22 219.19 L 129.88 218.86 Z" />
<path fill="#5fbbe0" d=" M 119.64 224.61 C 122.77 222.70 125.90 220.75 129.22 219.19 C 128.54 220.42 128.05 221.97 126.59 222.49 C 121.58 224.87 116.69 227.78 113.15 232.13 C 110.40 235.32 105.98 236.16 102.75 238.75 C 93.99 245.26 84.52 250.97 76.54 258.43 C 69.80 261.81 65.66 269.58 57.83 270.84 C 77.14 253.75 99.21 240.24 119.64 224.61 Z" />
<path fill="#266481" d=" M 254.00 222.99 C 264.48 221.11 272.40 229.40 282.20 230.26 C 276.65 234.72 270.91 239.02 264.87 242.81 C 257.03 244.08 248.94 245.78 241.04 243.89 C 241.04 243.19 241.03 241.78 241.03 241.08 C 248.36 240.20 255.81 239.86 262.94 237.80 C 264.09 230.59 252.21 230.12 254.00 222.99 Z" />
<path fill="#5fbbe0" d=" M 282.30 232.30 C 285.99 229.06 291.00 227.73 295.06 224.99 C 295.17 227.59 292.27 228.47 290.78 230.11 C 297.73 234.22 305.82 236.25 312.97 240.12 C 312.70 243.05 315.77 243.65 317.98 242.82 C 319.73 244.46 320.98 246.56 322.82 248.12 C 322.89 247.59 323.03 246.52 323.10 245.98 C 326.15 248.13 329.92 251.63 328.84 255.80 C 325.44 258.80 322.13 264.24 316.77 262.81 C 320.50 261.49 323.96 259.42 326.10 255.96 C 321.26 256.95 317.41 260.35 312.67 261.55 C 307.72 262.33 303.03 264.42 298.08 264.99 C 289.16 260.08 280.56 253.60 274.97 244.94 C 276.51 240.38 280.08 236.57 282.30 232.30 Z" />
<path fill="#266481" d=" M 161.59 236.38 C 160.79 234.14 159.49 229.34 165.60 233.37 C 176.25 242.48 188.23 250.58 202.01 253.92 C 206.53 254.43 211.07 254.83 215.60 255.34 C 218.14 260.00 220.40 264.98 224.21 268.79 C 229.09 273.43 233.52 279.87 240.98 280.09 C 248.31 282.93 255.88 280.76 263.17 279.06 C 262.62 280.76 260.89 281.45 259.72 282.65 C 258.87 283.35 258.01 284.04 257.13 284.72 L 256.19 284.96 C 248.90 285.20 241.51 284.53 234.28 285.32 C 231.64 287.03 229.23 289.14 226.27 290.32 C 223.85 291.79 221.20 293.25 219.63 295.70 C 218.17 296.54 216.74 297.43 215.24 298.17 C 213.78 299.09 209.28 298.82 210.65 301.29 C 210.75 303.84 206.52 302.79 204.78 303.06 C 202.75 302.82 200.78 303.64 199.10 304.71 C 197.52 306.41 195.23 305.95 193.19 305.71 C 185.72 305.51 178.12 305.55 170.74 306.67 C 164.82 307.10 158.93 307.91 153.00 307.99 C 150.50 306.28 146.56 308.17 147.03 311.01 C 147.36 312.67 147.00 313.66 145.96 313.96 C 143.19 314.05 140.41 313.92 137.72 314.62 L 136.93 314.78 C 132.93 315.26 128.93 315.76 124.91 316.03 C 122.51 315.63 120.20 315.78 117.98 316.49 C 116.22 316.86 114.59 317.61 113.06 318.56 L 112.17 318.79 C 108.44 319.17 105.18 321.69 103.80 325.17 C 103.37 325.06 102.50 324.84 102.07 324.73 C 102.86 321.17 103.76 316.89 108.01 316.02 C 113.50 312.83 120.00 314.29 126.01 313.88 C 130.97 314.01 135.64 311.62 140.64 312.47 C 144.06 312.48 146.63 308.84 145.33 305.29 C 150.63 303.31 156.41 303.27 161.97 302.82 C 161.15 293.88 151.93 289.15 148.84 281.14 C 155.07 282.74 161.62 281.27 167.70 279.69 C 169.68 277.98 171.83 276.30 173.01 273.91 C 172.59 265.25 170.10 256.86 168.59 248.35 C 166.55 244.20 163.31 240.70 161.59 236.38 Z" />
<path fill="#266481" d=" M 313.01 238.99 C 316.51 240.29 319.78 242.11 322.94 244.09 C 322.98 244.56 323.06 245.51 323.10 245.98 C 323.03 246.52 322.89 247.59 322.82 248.12 C 320.98 246.56 319.73 244.46 317.98 242.82 C 316.50 241.64 314.62 241.04 312.97 240.12 L 313.01 238.99 Z" />
<path fill="#3991b8" d=" M 312.97 240.12 C 314.62 241.04 316.50 241.64 317.98 242.82 C 315.77 243.65 312.70 243.05 312.97 240.12 Z" />
<path fill="#266481" d=" M 265.69 257.10 C 267.30 257.92 267.97 261.13 265.00 261.00 C 260.26 263.79 254.79 265.83 249.20 264.85 C 246.85 263.56 248.62 261.22 250.27 260.30 C 255.67 260.61 260.51 258.08 265.69 257.10 Z" />
<path fill="#5fbbe0" d=" M 300.85 267.90 C 305.18 265.23 309.35 261.38 315.02 262.95 L 314.93 263.88 C 309.04 261.48 306.18 268.67 300.85 267.90 Z" />
<path fill="#266481" d=" M 275.34 267.26 C 282.64 264.98 290.52 266.28 298.04 266.02 C 298.55 269.73 292.79 267.55 290.75 268.76 C 286.54 269.16 282.31 268.74 278.11 269.10 C 276.96 269.25 275.83 269.46 274.72 269.73 C 274.87 269.11 275.18 267.88 275.34 267.26 Z" />
<path fill="#5fbbe0" d=" M 274.72 269.73 C 275.83 269.46 276.96 269.25 278.11 269.10 C 273.43 273.07 269.34 277.92 263.93 281.00 C 266.07 276.38 271.90 274.15 274.72 269.73 Z" />
<path fill="#5fbbe0" d=" M 45.82 280.83 C 49.05 277.02 52.91 273.76 57.22 271.22 C 54.65 276.05 49.92 279.28 46.05 283.01 C 45.99 282.47 45.88 281.38 45.82 280.83 Z" />
<path fill="#3991b8" d=" M 44.22 282.13 C 44.62 281.80 45.42 281.16 45.82 280.83 C 45.88 281.38 45.99 282.47 46.05 283.01 C 42.24 286.56 37.86 289.45 34.16 293.13 C 34.14 292.63 34.09 291.62 34.07 291.12 C 37.37 288.04 41.65 285.90 44.22 282.13 Z" />
<path fill="#266481" d=" M 34.17 288.26 C 37.56 286.29 40.72 283.93 44.22 282.13 C 41.65 285.90 37.37 288.04 34.07 291.12 C 34.09 290.41 34.14 288.98 34.17 288.26 Z" />
<path fill="#5fbbe0" d=" M 259.72 282.65 C 260.26 282.56 261.35 282.37 261.89 282.28 C 262.38 284.41 258.75 285.53 257.13 284.72 C 258.01 284.04 258.87 283.35 259.72 282.65 Z" />
<path fill="#5fbbe0" d=" M 234.28 285.32 C 241.51 284.53 248.90 285.20 256.19 284.96 C 250.10 289.03 238.56 282.07 232.45 288.37 C 229.88 289.78 227.76 292.01 225.07 293.07 C 225.46 292.15 225.86 291.23 226.27 290.32 C 229.23 289.14 231.64 287.03 234.28 285.32 Z" />
<path fill="#3991b8" d=" M 219.63 295.70 C 221.20 293.25 223.85 291.79 226.27 290.32 C 225.86 291.23 225.46 292.15 225.07 293.07 C 224.81 293.30 224.30 293.76 224.04 293.98 C 222.54 294.48 221.09 295.10 219.63 295.70 Z" />
<path fill="#5fbbe0" d=" M 24.25 304.23 C 24.70 298.82 29.73 294.03 34.07 291.12 C 34.09 291.62 34.14 292.63 34.16 293.13 C 30.78 296.76 27.29 300.30 24.25 304.23 Z" />
<path fill="#5fbbe0" d=" M 219.63 295.70 C 221.09 295.10 222.54 294.48 224.04 293.98 C 222.24 297.04 218.28 298.54 214.97 299.02 L 215.24 298.17 C 216.74 297.43 218.17 296.54 219.63 295.70 Z" />
<path fill="#3991b8" d=" M 210.65 301.29 C 209.28 298.82 213.78 299.09 215.24 298.17 L 214.97 299.02 C 214.64 301.17 212.35 301.16 210.65 301.29 Z" />
<path fill="#5fbbe0" d=" M 199.10 304.71 C 200.78 303.64 202.75 302.82 204.78 303.06 C 204.20 305.02 200.90 305.72 199.10 304.71 Z" />
<path fill="#3991b8" d=" M 170.74 306.67 C 178.12 305.55 185.72 305.51 193.19 305.71 C 190.51 306.41 187.81 307.26 185.00 307.04 C 180.24 306.94 175.48 307.04 170.74 306.67 Z" />
<path fill="#5fbbe0" d=" M 153.00 307.99 C 158.93 307.91 164.82 307.10 170.74 306.67 C 175.48 307.04 180.24 306.94 185.00 307.04 L 185.00 307.99 C 174.64 307.75 164.31 308.24 154.00 309.08 C 150.82 307.37 149.15 309.73 147.03 311.01 C 146.56 308.17 150.50 306.28 153.00 307.99 Z" />
<path fill="#5fbbe0" d=" M 137.72 314.62 C 140.41 313.92 143.19 314.05 145.96 313.96 C 145.21 316.30 140.12 314.55 137.72 314.62 Z" />
<path fill="#5fbbe0" d=" M 124.91 316.03 C 128.93 315.76 132.93 315.26 136.93 314.78 L 136.94 315.80 C 132.97 316.28 128.90 317.63 124.93 316.67 L 124.91 316.03 Z" />
<path fill="#3991b8" d=" M 117.98 316.49 C 120.20 315.78 122.51 315.63 124.91 316.03 L 124.93 316.67 C 123.04 317.73 120.62 317.29 118.60 316.88 L 117.98 316.49 Z" />
<path fill="#5fbbe0" d=" M 113.06 318.56 C 114.59 317.61 116.22 316.86 117.98 316.49 L 118.60 316.88 C 118.29 318.64 114.68 319.43 113.06 318.56 Z" />
<path fill="#5fbbe0" d=" M 103.80 325.17 C 105.18 321.69 108.44 319.17 112.17 318.79 C 110.75 320.84 107.91 321.34 106.47 323.40 C 105.91 324.46 105.02 325.05 103.80 325.17 Z" />
<path fill="#5fbbe0" d=" M 96.98 331.95 C 99.88 330.60 102.60 328.99 103.84 325.88 C 104.21 327.97 103.53 330.83 101.12 331.23 C 94.25 335.01 86.93 338.69 78.76 336.77 C 85.03 336.13 91.40 335.04 96.98 331.95 Z" />
<path fill="#5fbbe0" d=" M 22.08 326.82 C 25.25 329.71 28.19 332.91 32.02 334.93 C 28.53 334.26 30.86 337.04 32.74 337.29 C 33.76 337.64 34.80 337.94 35.85 338.20 L 36.11 339.05 C 29.78 339.09 21.93 333.61 22.08 326.82 Z" />
<path fill="#3991b8" d=" M 48.18 328.82 C 50.52 329.64 52.59 331.05 54.86 332.03 C 56.35 335.43 59.36 337.58 62.14 339.84 C 60.73 339.62 59.33 339.30 57.92 339.12 C 50.65 338.76 43.38 339.13 36.11 339.05 L 35.85 338.20 C 38.32 337.97 40.78 337.69 43.24 337.36 C 44.78 337.17 46.33 337.04 47.86 336.82 C 48.06 334.15 48.17 331.49 48.18 328.82 Z" />
<path fill="#5fbbe0" d=" M 54.86 332.03 C 58.45 333.90 60.90 337.51 64.14 339.98 C 67.72 340.78 69.37 335.91 73.05 336.98 C 71.82 338.38 69.43 338.56 68.76 340.87 C 65.60 339.75 59.59 343.42 57.92 339.12 C 59.33 339.30 60.73 339.62 62.14 339.84 C 59.36 337.58 56.35 335.43 54.86 332.03 Z" />
<path fill="#3991b8" d=" M 32.74 337.29 C 30.86 337.04 28.53 334.26 32.02 334.93 C 34.58 336.18 37.46 336.29 40.21 336.85 C 38.34 336.96 34.60 337.18 32.74 337.29 Z" />
<path fill="#266481" d=" M 32.74 337.29 C 34.60 337.18 38.34 336.96 40.21 336.85 C 40.97 336.98 42.48 337.23 43.24 337.36 C 40.78 337.69 38.32 337.97 35.85 338.20 C 34.80 337.94 33.76 337.64 32.74 337.29 Z" />
</svg>
